# xmcd CD database file
#
# Track frame offsets:
#	150
#	27242
#	53071
#	82931
#	102696
#	126406
#	152707
#	172730
#	180985
#
# Disc length: 2748 seconds
#
# Revision: 0
# Processed by: cddbd v1.5.2PL0 Copyright (c) Steve Scherf et al.
# Submitted via: CDex 1.51
#
DISCID=670aba09
DTITLE=Judy Dyble - The Whorl
DYEAR=2006
DGENRE=New Age
TTITLE0=Breathe The Same Air
TTITLE1=The Teller
TTITLE2=I Talk To The Wind
TTITLE3=Seventh Whorl
TTITLE4=Road To Somewhere
TTITLE5=The Last Kiss
TTITLE6=Wazzle Wizzle
TTITLE7=Starlight
TTITLE8=Forever Shining
EXTD=YEAR: 2006
EXTT0=
EXTT1=
EXTT2=
EXTT3=
EXTT4=
EXTT5=
EXTT6=
EXTT7=
EXTT8=
PLAYORDER=
